<svg xmlns="http://www.w3.org/2000/svg" width="35" height="42"><g fill="#29C0D3" fill-rule="nonzero"><path d="M1.86 24.006c-.657.112-1.094.559-1.094 1.23V38.87c0 .67.546 1.229 1.203 1.229h5.468c.657 0 1.204-.559 1.204-1.23v-.446l10.609 2.794c.328.111.656 0 .875-.112l13.234-7.6.11-.112c.875-.67 1.203-1.676 1.203-2.682 0-1.677-1.422-3.13-3.063-3.13h-.656c-.219 0-.547.112-.875.112-.656.112-1.64.224-2.515.447l-3.5.67c-.547-.446-1.204-.67-1.97-.67h-3.609c-1.75-1.453-5.14-2.906-10.062-3.13 0-.67-.547-1.229-1.203-1.229H1.75c.219.224.11.224.11.224zm1.312 2.459h3.062V37.64H3.172V26.465zm5.469 1.23c4.812.11 8.093 1.9 8.859 2.681.219.224.547.336.875.336h3.938c.546 0 .875.447.875.894a.872.872 0 01-.875.894h-5.797c-.657 0-1.203.559-1.203 1.23 0 .67.546 1.229 1.203 1.229h5.797c1.859 0 3.28-1.565 3.28-3.353v-.447a84.8 84.8 0 012.516-.447c.875-.112 1.75-.336 2.407-.447.328-.112.656-.112.875-.112h.218c.438 0 .657.112.657.67 0 .336-.22.671-.22.671L19.36 38.76 8.641 35.853v-8.159zM23.5 22.452c-6.04 0-10.952-4.912-10.952-10.952S17.46.548 23.5.548 34.452 5.461 34.452 11.5c0 6.04-4.913 10.952-10.952 10.952zm0-19.714c-4.831 0-8.762 3.93-8.762 8.762 0 4.831 3.93 8.762 8.762 8.762 4.831 0 8.762-3.93 8.762-8.762 0-4.831-3.93-8.762-8.762-8.762z"/><path d="M23.5 16.976a3.29 3.29 0 01-3.285-3.285 1.095 1.095 0 112.19 0 1.097 1.097 0 002.191 0c0-.605-.492-1.096-1.096-1.096a3.289 3.289 0 01-3.285-3.284A3.29 3.29 0 0123.5 6.025a3.29 3.29 0 013.286 3.286 1.095 1.095 0 01-2.19 0c0-.604-.492-1.096-1.096-1.096-.603 0-1.095.492-1.095 1.096 0 .603.492 1.095 1.095 1.095a3.29 3.29 0 013.286 3.286 3.29 3.29 0 01-3.286 3.285z"/><path d="M23.5 8.214c-.604 0-1.095-.49-1.095-1.095V6.024a1.095 1.095 0 112.191 0v1.095c0 .605-.491 1.095-1.096 1.095zm0 9.857c-.604 0-1.095-.49-1.095-1.095v-1.095a1.096 1.096 0 012.191 0v1.095c0 .606-.491 1.095-1.096 1.095z"/></g></svg>