<svg xmlns="http://www.w3.org/2000/svg" width="14" height="17"><path d="M8.44 8.65c1.688-.597 2.978-2.287 2.978-4.176A4.452 4.452 0 006.95 0a4.452 4.452 0 00-4.468 4.474c0 1.889 1.192 3.579 2.979 4.175C2.284 9.345 0 12.129 0 15.509v.895c0 .298.298.596.596.596h12.808c.298 0 .596-.298.596-.596v-.895c-.1-3.38-2.383-6.164-5.56-6.86zM3.574 4.474a3.35 3.35 0 013.376-3.38 3.35 3.35 0 013.376 3.38 3.35 3.35 0 01-3.376 3.38c-1.886-.1-3.376-1.59-3.376-3.38zm9.235 11.333H1.092v-.298c0-3.28 2.681-5.866 5.858-5.866 3.178 0 5.859 2.684 5.859 5.866v.298z" fill="#793E87" fill-rule="nonzero"/></svg>