<svg xmlns="http://www.w3.org/2000/svg" xmlns:xlink="http://www.w3.org/1999/xlink" width="350" height="247"><defs><linearGradient id="b" x1="-.007%" x2="100.002%" y1="50.001%" y2="50.001%"><stop offset="0%" stop-color="#F4A091"/><stop offset="100%" stop-color="#FF918E"/></linearGradient><linearGradient id="e" x1="-.002%" x2="100%" y1="50.001%" y2="50.001%"><stop offset="0%" stop-color="#F4A091"/><stop offset="100%" stop-color="#FF918E"/></linearGradient><linearGradient id="h" x1="-.001%" x2="99.998%" y1="50%" y2="50%"><stop offset="0%" stop-color="#F4A091"/><stop offset="100%" stop-color="#FF918E"/></linearGradient><linearGradient id="k" x1=".002%" x2="100.001%" y1="50%" y2="50%"><stop offset="0%" stop-color="#F4A091"/><stop offset="100%" stop-color="#FF918E"/></linearGradient><linearGradient id="n" x1="38.745%" x2="47.908%" y1="185.669%" y2="80.741%"><stop offset="0%" stop-color="#FDBABA"/><stop offset="100%" stop-color="#FF918E"/></linearGradient><linearGradient id="q" x1=".001%" x2="99.999%" y1="50.001%" y2="50.001%"><stop offset="0%" stop-color="#F4A091"/><stop offset="100%" stop-color="#FF918E"/></linearGradient><linearGradient id="t" x1="-.004%" x2="100.002%" y1="50%" y2="50%"><stop offset="0%" stop-color="#F4A091"/><stop offset="100%" stop-color="#FF918E"/></linearGradient><linearGradient id="w" x1=".003%" x2="100.002%" y1="49.999%" y2="49.999%"><stop offset="0%" stop-color="#F4A091"/><stop offset="100%" stop-color="#FF918E"/></linearGradient><linearGradient id="z" x1="-.01%" x2="100.007%" y1="49.998%" y2="49.998%"><stop offset="0%" stop-color="#F4A091"/><stop offset="100%" stop-color="#FF918E"/></linearGradient><linearGradient id="C" x1="35.49%" x2="82.609%" y1="-19.055%" y2="222.542%"><stop offset="0%" stop-color="#F4A091"/><stop offset="100%" stop-color="#FF918E"/></linearGradient><linearGradient id="F" x1="63.408%" x2="19.936%" y1="-19.574%" y2="222.023%"><stop offset="0%" stop-color="#F4A091"/><stop offset="100%" stop-color="#FF918E"/></linearGradient><linearGradient id="I" x1="156.113%" x2="-19.386%" y1="-405.844%" y2="336.565%"><stop offset="0%" stop-color="#FDBABA"/><stop offset="100%" stop-color="#FF918E"/></linearGradient><linearGradient id="L" x1="217.737%" x2="39.829%" y1="-636.047%" y2="114.38%"><stop offset="0%" stop-color="#FDBABA"/><stop offset="100%" stop-color="#FF918E"/></linearGradient><linearGradient id="O" x1="51.093%" x2="48.867%" y1="118.008%" y2="-20.245%"><stop offset="0%" stop-color="#F4A091"/><stop offset="100%" stop-color="#FF918E"/></linearGradient><linearGradient id="R" x1="42.429%" x2="63.081%" y1="95.947%" y2="-40.107%"><stop offset="0%" stop-color="#F4A091"/><stop offset="100%" stop-color="#FF918E"/></linearGradient><linearGradient id="U" x1="64.044%" x2="20.392%" y1="315.19%" y2="-528.165%"><stop offset="0%" stop-color="#F4A091"/><stop offset="100%" stop-color="#FF918E"/></linearGradient><path id="a" d="M.058 11.526C-.282 12.411.982 14 .982 14l1.023-.312-.057-2.051L3.927 7.38a2.983 2.983 0 00.007-2.477L1.693 0S.399 10.642.058 11.526"/><path id="d" d="M0 2.071C1.176 14.38 12.725 29.4 12.725 29.4c1.877-.362 5.475-6.328 5.475-6.328C7.39 17.578 1.046 0 1.046 0L0 2.071z"/><path id="g" d="M1.673 2.93s1.623 16.894 1.912 23.65a5.403 5.403 0 01-.762 3.01L0 34.3l7.173-4.35.143-.9-1.174-1.658L7.68 8.467a5.95 5.95 0 00-.643-3.212L5.553 2.391 2.158 0l-.485 2.93z"/><path id="j" d="M0 1.21s9.68 18.42 11.218 22.626c1.54 4.206 2.079 7.714 2.099 8.047.032.518.675 1.017 2.45 1.017.915 0 1.364-.369 1.584-.725.187-.304.196-.684.039-1.005-.56-1.137-2.337-4.77-2.995-6.417-.786-1.968-2.476-10.883-3.403-13.983-.927-3.1-1.975-6.462-6.01-9.56 0 0-1.233-1.21-2.708-1.21C1.536 0 .737.303 0 1.21"/><path id="m" d="M2.482.097L.711.834c-.487.204-.773.685-.7 1.18L.93 8.266a.929.929 0 00.109.34c.604 1.023 2.408 1.533 3.808 1.781.854.152 1.625.281 1.42-.512L4.13.86C3.995.337 3.499 0 2.967 0c-.162 0-.326.03-.485.097"/><path id="p" d="M0 3.277c5.307 17.292 20.786 20.15 27.993 20.519 2.013.103 3.652-1.608 3.497-3.636l-.059-.757a2.518 2.518 0 00-2.712-2.324C7.047 18.851 1.673 0 1.673 0L0 3.277z"/><path id="s" d="M1.452.281C.688 1.482-.201 5.751.04 7.654.282 9.557 1.243 12.6 1.243 12.6L2.8 9.35l-.351-2.586s.582-1.974.238-3.357C2.4 2.249 2.263-.001 1.778 0c-.094 0-.202.085-.326.281"/><path id="v" d="M3.002.065s-5.159 7.768-1.95 9.932c3.207 2.164 6.88-3.356 6.88-3.356s1.152-4.219-.159-5.617C6.967.165 5.35 0 4.223 0c-.707 0-1.221.065-1.221.065"/><path id="y" d="M0 1.422L.111 2.57c.87.76 3.32-.48 2.536-2.048C2.457.143 2.207 0 1.933 0 1.073 0 0 1.422 0 1.422"/><path id="B" d="M8.625 22.4c2.725-.36 1.677-4.863 1.677-4.863S4.6 16.281 6.313 3.04C4.736 1.748 1.256 0 1.256 0s-5.755 15.876 7.369 22.4"/><path id="E" d="M4.14 3.039C4.74 15.285.196 17.537.196 17.537S-.84 22.04 1.853 22.4C13.052 16.571 9.137 0 9.137 0S5.698 1.748 4.14 3.039"/><path id="H" d="M0 4.764l1.651.132c.461.036.916-.157 1.262-.535.347-.38.556-.913.583-1.485.035-.716-.166-1.42-.555-1.95C2.55.394 2.005.079 1.425.05L.346 0 0 4.764z"/><path id="K" d="M2.163.015C1.576.022 1.015.322.61.845.202 1.368-.017 2.07 0 2.795c.015.58.215 1.125.558 1.52.342.395.798.605 1.266.583L3.5 4.823 3.257 0 2.163.015z"/><path id="N" d="M3.41.412l-.107 3.92L0 4.933S1.183 9.9 6.927 9.798c5.85-.103 6.373-4.88 6.373-4.88l-3.822-.793L9.158 0 3.41.412z"/><path id="Q" d="M3.81 15.808c5.492 2.178 8.936-8.448 7.91-11.326C10.13.032 9.084.56 9.084.56L2.587 0s-6.565 12.722 1.222 15.808"/><path id="T" d="M.047.91C-.208 2.752.61 5.127 1.57 3.826c.959-1.303.324-3.232.324-3.232S1.274 0 .747 0c-.319 0-.604.216-.7.91"/></defs><g fill="none" fill-rule="evenodd"><path fill="#5F9392" d="M60.058 1.226C59.828.25 61.202-.4 62.044.282c8.545 6.932 29.077 27.687 23.96 63.96-6.42 45.509 4.556 62.115 18.218 72.244 0 0-18.763-4.763-30.567-21.614-28.983-41.37-9.517-96.27-13.597-113.646"/><path fill="#174447" d="M66.56 15.44c1.07 5.067 2.023 10.148 2.758 15.254.768 5.1 1.356 10.218 1.758 15.345.38 5.127.648 10.26.663 15.395.041 5.135-.172 10.265-.407 15.416-.202 5.149-.438 10.334-.062 15.557.371 5.212 1.467 10.47 3.644 15.398.544 1.229 1.116 2.453 1.766 3.636a60.37 60.37 0 002.021 3.524 55.796 55.796 0 004.848 6.67c3.61 4.236 7.966 7.992 12.763 11.172.506.335 1.228.253 1.616-.183.38-.428.296-1.039-.185-1.378l-.004-.001a77.478 77.478 0 01-3.355-2.468c-.55-.419-1.077-.858-1.613-1.289-.517-.448-1.054-.878-1.555-1.338a55.164 55.164 0 01-5.637-5.795c-3.443-4.073-6.201-8.612-8.29-13.316a45.058 45.058 0 01-2.416-7.257c-.59-2.47-.96-4.983-1.166-7.517-.41-5.069-.225-10.203-.066-15.353.15-5.15.262-10.328.126-15.5-.06-2.587-.173-5.172-.34-7.755-.075-1.29-.18-2.58-.281-3.87-.115-1.29-.239-2.578-.375-3.865a217.258 217.258 0 00-2.214-15.382c-.95-5.1-2.059-10.176-3.39-15.207-.04-.143-.205-.233-.371-.2-.162.031-.264.168-.235.308"/><path fill="#7BB7B4" d="M82.194 113.6c-1.048 1.112-2.89.792-3.52-.6-3.48-7.68-11.349-30.284 1.649-56.325 10.976-21.99 14.838-34.957 16.184-40.965.284-1.27 2.025-1.44 2.55-.248 5.798 13.142 21.103 57.845-16.862 98.138"/><path fill="#174447" d="M80.29 112.79a.599.599 0 01-.702-.597c.006-.373.733-37.704 14.614-68.969a.595.595 0 111.089.484c-13.78 31.038-14.504 68.132-14.51 68.503a.596.596 0 01-.49.578"/><path fill="#5C2767" d="M163.529 182.021l-5.31 47.633h61.604l-8.024-47.633z"/><path fill="#793E87" d="M60.046 64.662v109.093c0 8.975 7.15 16.313 16.12 16.545 39.835 1.027 179.16 3.519 217.081 2.96 6.518-.097 11.798-5.313 11.986-11.831.732-25.344 1.919-86.287-2.476-114.58a12.527 12.527 0 00-11.979-10.607c-33.377-1.068-181.072-4.46-218.975-3.608-6.537.147-11.757 5.488-11.757 12.028"/><path fill="#6FBFBB" d="M66.89 64.131v103.646c0 5.24 4.205 9.509 9.442 9.587l211.46 2.614c5.193.077 9.45-4.101 9.469-9.297l.354-102.72a6.824 6.824 0 00-6.657-6.847L74.463 56.739a7.393 7.393 0 00-7.573 7.392"/><path fill="#5C2767" d="M298.853 184.257h-.006l-231.963-3.953a.324.324 0 11.011-.65l231.963 3.953a.326.326 0 01-.005.65"/><path fill="#793E87" d="M233.092 239.4h-90.16c-2.45 0-4.29-1.744-3.816-3.617l1.157-4.577c.348-1.376 1.862-2.387 3.66-2.443l86.918.909c1.878-.06 3.541.938 3.95 2.369l1.24 2.177c1.283 2.258-.277 5.144-2.875 5.181l-.074.001"/><path fill="#FFF" d="M251.555 96.082h-23.504a2.672 2.672 0 010-5.345h23.504a2.672 2.672 0 010 5.345m8.651-4.206h25.37c1.592 0 2.882 4.746 2.882 10.6v62.427c0 5.855-1.29 10.601-2.883 10.601h-25.369c-1.592 0-2.883-4.746-2.883-10.6v-62.427c0-5.855 1.29-10.6 2.883-10.6M228.05 99.05h23.505a2.672 2.672 0 012.672 2.672v15.735a2.672 2.672 0 01-2.672 2.672h-23.504a2.672 2.672 0 01-2.672-2.672v-15.735a2.673 2.673 0 012.672-2.672m-.001 25.797h23.505c1.476 0 2.672 2.883 2.672 6.44v37.924c0 3.556-1.196 6.44-2.672 6.44h-23.504c-1.475 0-2.672-2.884-2.672-6.44v-37.925c0-3.556 1.197-6.44 2.672-6.44m60.113-37.416H77.605a4.414 4.414 0 01-4.413-4.414V65.45a4.414 4.414 0 014.525-4.413l210.559 5.326a4.413 4.413 0 014.301 4.413v12.24a4.413 4.413 0 01-4.413 4.414m-89.24 72.224h-33.346c-12.17 0-22.036-9.868-22.036-22.041v-22.92c0-12.173 9.866-22.041 22.036-22.041h33.346c12.17 0 22.036 9.868 22.036 22.042v22.919c0 12.173-9.866 22.041-22.036 22.041m21.836 17.105L74.882 175.53a3.222 3.222 0 01-3.195-3.223v-5.147a4.455 4.455 0 014.455-4.457h144.42c.95 0 1.72.77 1.72 1.72v10.824c0 .84-.683 1.518-1.522 1.51M118.279 158.11h-25.83c-11.467 0-20.762-9.299-20.762-20.768v-25.837c0-11.47 9.295-20.767 20.762-20.767h25.83c11.467 0 20.762 9.298 20.762 20.767v25.837c0 11.47-9.295 20.767-20.762 20.767" opacity=".365"/><path fill="#CCA1D6" d="M195.413 111.774l68.993-.62a2.427 2.427 0 012.447 2.44l-.302 52.956a2.423 2.423 0 01-2.495 2.41c-12.474-.371-67.857-2.013-70.302-1.91-2.417.1-1.103-42.44-.743-52.936a2.423 2.423 0 012.402-2.34"/><path fill="#FFF" d="M195.235 164.76c9.515.14 59.024 1.612 68.89 1.906h.01c.064 0 .12-.058.12-.129l.303-52.957a.13.13 0 00-.133-.13l-68.992.62a.126.126 0 00-.128.122c-.884 25.72-.91 45.504-.07 50.568m68.895 2.204h-.014c-9.91-.295-59.81-1.778-69.01-1.908l-.122-.001-.022-.122c-.865-4.88-.847-24.801.045-50.75a.426.426 0 01.423-.413l68.994-.618a.426.426 0 01.432.43l-.302 52.957a.427.427 0 01-.424.425"/><path fill="#E6CCED" d="M203.739 160.156h45.227c1.408 0 2.283-1.53 1.57-2.744l-17.906-30.446c-.747-1.27-2.614-1.173-3.225.167l-8.646 18.949a1.82 1.82 0 01-2.885.586l-3.498-3.207a1.82 1.82 0 00-2.725.303l-9.407 13.532c-.839 1.207.024 2.86 1.495 2.86m51.114-34.11a6.501 6.501 0 11-13.003 0 6.502 6.502 0 1113.003 0"/><path fill="#208B8E" d="M308.881 158.99c-1.587-5.873-6.492-10.698-11.958-11.918-1.004-.224-1.586-1.247-1.35-2.25l.004-.02c.793-3.416-1.396-6.137-4.698-6.903-3.301-.766-6.464.714-7.256 4.13-.534 2.305.15 4.898 1.665 6.577.625.692.675 1.725.07 2.434-3.33 3.903-4.686 9.86-3.245 15.19 2.121 7.849 9.5 11.355 16.892 9.356 7.392-1.999 11.999-8.747 9.876-16.596"/><g transform="translate(266 121.8)"><mask id="c" fill="#fff"><use xlink:href="#a"/></mask><path fill="url(#b)" d="M.058 11.526C-.282 12.411.982 14 .982 14l1.023-.312-.057-2.051L3.927 7.38a2.983 2.983 0 00.007-2.477L1.693 0S.399 10.642.058 11.526" mask="url(#c)"/></g><g transform="translate(266.7 133.7)"><mask id="f" fill="#fff"><use xlink:href="#d"/></mask><path fill="url(#e)" d="M0 2.071C1.176 14.38 12.725 29.4 12.725 29.4c1.877-.362 5.475-6.328 5.475-6.328C7.39 17.578 1.046 0 1.046 0L0 2.071z" mask="url(#f)"/></g><path fill="#174447" d="M312.207 238.99l.317 2.582c.331 1.228 1.928 4.32 3.979 4.119 1.26-.124 1.412-3.77 1.237-4.317-.32-.997-.906-2.493-1.752-3.374h-2.896a.886.886 0 00-.885.99"/><g transform="translate(286.3 207.9)"><mask id="i" fill="#fff"><use xlink:href="#g"/></mask><path fill="url(#h)" d="M1.673 2.93s1.623 16.894 1.912 23.65a5.403 5.403 0 01-.762 3.01L0 34.3l7.173-4.35.143-.9-1.174-1.658L7.68 8.467a5.95 5.95 0 00-.643-3.212L5.553 2.391 2.158 0l-.485 2.93z" mask="url(#i)"/></g><path fill="#174447" d="M286.215 242.9h2.325c.435 0 .846-.203 1.111-.552.725-.953 2.227-2.814 2.946-2.862.966-.066.843 3.414.843 3.414h.542l.686-4.325a2.568 2.568 0 00-1.326-2.675s-.222 1.655-1.42 2.387c-1.199.732-4.876 3.353-4.876 3.353s-.45-.064-.945.025c-.734.135-.632 1.235.114 1.235"/><g transform="translate(298.9 207.9)"><mask id="l" fill="#fff"><use xlink:href="#j"/></mask><path fill="url(#k)" d="M0 1.21s9.68 18.42 11.218 22.626c1.54 4.206 2.079 7.714 2.099 8.047.032.518.675 1.017 2.45 1.017.915 0 1.364-.369 1.584-.725.187-.304.196-.684.039-1.005-.56-1.137-2.337-4.77-2.995-6.417-.786-1.968-2.476-10.883-3.403-13.983-.927-3.1-1.975-6.462-6.01-9.56 0 0-1.233-1.21-2.708-1.21C1.536 0 .737.303 0 1.21" mask="url(#l)"/></g><path fill="#29C0D3" d="M292.315 179.143c-1.427-6.062.01-10.63 1.517-13.446a4.548 4.548 0 00-1.899-6.2c-3.527-1.837-7.105-2.697-7.105-2.697s-6.989 5.12-6.16 9.127c.486 2.349 4.913 14.069 4.913 14.069s4.092 1.94 8.734-.853"/><path fill="#FFB300" d="M297.891 184.43c-1.024-3.09-5.576-5.287-5.576-5.287-4.642 2.794-8.734.853-8.734.853s-.919 3.516-.285 6.783c.634 3.268 4.609 24.266 4.609 24.266 6.263 1.271 15.895-1.28 15.895-1.28-3.99-7.097-4.885-22.246-5.909-25.335"/><g transform="translate(285.6 148.4)"><mask id="o" fill="#fff"><use xlink:href="#m"/></mask><path fill="url(#n)" d="M2.482.097L.711.834c-.487.204-.773.685-.7 1.18L.93 8.266a.929.929 0 00.109.34c.604 1.023 2.408 1.533 3.808 1.781.854.152 1.625.281 1.42-.512L4.13.86C3.995.337 3.499 0 2.967 0c-.162 0-.326.03-.485.097" mask="url(#o)"/></g><g transform="translate(262.5 143.5)"><mask id="r" fill="#fff"><use xlink:href="#p"/></mask><path fill="url(#q)" d="M0 3.277c5.307 17.292 20.786 20.15 27.993 20.519 2.013.103 3.652-1.608 3.497-3.636l-.059-.757a2.518 2.518 0 00-2.712-2.324C7.047 18.851 1.673 0 1.673 0L0 3.277z" mask="url(#r)"/></g><g transform="translate(261.1 133.7)"><mask id="u" fill="#fff"><use xlink:href="#s"/></mask><path fill="url(#t)" d="M1.452.281C.688 1.482-.201 5.751.04 7.654.282 9.557 1.243 12.6 1.243 12.6L2.8 9.35l-.351-2.586s.582-1.974.238-3.357C2.4 2.249 2.263-.001 1.778 0c-.094 0-.202.085-.326.281" mask="url(#u)"/></g><g transform="translate(282.8 141.4)"><mask id="x" fill="#fff"><use xlink:href="#v"/></mask><path fill="url(#w)" d="M3.002.065s-5.159 7.768-1.95 9.932c3.207 2.164 6.88-3.356 6.88-3.356s1.152-4.219-.159-5.617C6.967.165 5.35 0 4.223 0c-.707 0-1.221.065-1.221.065" mask="url(#x)"/></g><path fill="#208B8E" d="M287.593 140.11s-2.362.573-2.674 1.592c-.312 1.02 3.404 1.895 4.442 1.922l.916 4.076s2.39-3.892 1.369-6.098c-1.022-2.204-4.053-1.492-4.053-1.492"/><g transform="translate(289.8 146.3)"><mask id="A" fill="#fff"><use xlink:href="#y"/></mask><path fill="url(#z)" d="M0 1.422L.111 2.57c.87.76 3.32-.48 2.536-2.048C2.457.143 2.207 0 1.933 0 1.073 0 0 1.422 0 1.422" mask="url(#A)"/></g><g><path fill="#5F9392" d="M38.7 213.071h82.344v-13.41H38.7c1.763 0 1.763 13.41 0 13.41"/><path fill="#174447" d="M121.044 209.715v-6.137c0-2.164-1.627-3.917-3.634-3.917H39.046c-1.578 0-2.858-1.041-2.858-2.326 0-.39.388-.706.868-.706h85.646c1.963 0 5.082 2.512 5.082 5.612v8.57c0 2.924-3.027 5.293-4.88 5.293H37.508c-.729 0-1.319-.48-1.319-1.074 0-1.082 1.078-1.959 2.408-1.959h79.333c1.72 0 3.114-1.502 3.114-3.356"/><path fill="#AAE7EE" d="M118.76 202.71H41.552a.297.297 0 110-.595h77.21a.298.298 0 010 .595m-.002 1.991H41.552a.298.298 0 010-.595h77.21a.297.297 0 010 .595m-.002 1.99H41.552a.297.297 0 110-.595h77.21a.298.298 0 010 .595m-.002 1.991H41.552a.297.297 0 110-.595h77.21a.297.297 0 010 .595m-.002 1.991H41.552a.298.298 0 010-.596h77.21a.298.298 0 010 .596"/><path fill="#7FB2AF" d="M122.076 238.7H29.825c-4.875 0-8.825-3.962-8.825-8.849v-4.711c0-4.887 3.951-8.849 8.825-8.849h92.25c4.874 0 8.825 3.962 8.825 8.849v4.711c0 4.887-3.95 8.849-8.824 8.849"/><path fill="#5F9392" d="M44.18 236.125h-8.608a2.155 2.155 0 01-2.151-2.158v-12.943c0-1.19.963-2.157 2.151-2.157h8.608c1.189 0 2.152.966 2.152 2.157v12.943a2.155 2.155 0 01-2.152 2.158m7.145 0H49.98c-.966 0-1.75-.786-1.75-1.755v-13.75c0-.969.784-1.754 1.75-1.754h1.345c.966 0 1.75.785 1.75 1.754v13.75c0 .969-.784 1.755-1.75 1.755"/><path fill="#174447" d="M76.596 136.326c-.054.101-3.414 2.58-3.414 2.58s.743 5.322 3.755 7.424c3.312 2.31 7.99-1.903 7.99-1.903s3.723.887 5.703-6.883c.454-1.784-2.168-1.934-5.332-1.606-4.08.424-8.702.388-8.702.388m-6.28 18.158a14.144 14.144 0 014.308-2.01c.578-.158 3.703.753 5.634.708 2.651-.06 5.35-1.27 7.535-.724 2.171.542 3.948 1.25 4.974 1.982 3.07 2.19 4.873 6.273 5.97 10.318-2.08 2.142-4.697 3.093-4.697 3.093l-.484 19.66-11.594 5.949-13.233-6.663.475-19.212s-4.202-1.962-4.51-2.676c-.309-.714 1.915-7.869 5.622-10.425"/></g><g transform="translate(63.7 164.5)"><mask id="D" fill="#fff"><use xlink:href="#B"/></mask><path fill="url(#C)" d="M8.625 22.4c2.725-.36 1.677-4.863 1.677-4.863S4.6 16.281 6.313 3.04C4.736 1.748 1.256 0 1.256 0s-5.755 15.876 7.369 22.4" mask="url(#D)"/></g><g transform="translate(89.6 164.5)"><mask id="G" fill="#fff"><use xlink:href="#E"/></mask><path fill="url(#F)" d="M4.14 3.039C4.74 15.285.196 17.537.196 17.537S-.84 22.04 1.853 22.4C13.052 16.571 9.137 0 9.137 0S5.698 1.748 4.14 3.039" mask="url(#G)"/></g><g><path fill="#D0D6EC" d="M89.028 187.829H73.614c-2.758 0-5.014-2.236-5.014-4.97v-7.089c0-2.734 2.256-4.97 5.014-4.97h15.414c2.758 0 5.013 2.236 5.013 4.969v7.09c0 2.734-2.255 4.97-5.013 4.97"/><path fill="#FFB300" d="M105.2 192.878c-2.911-.663-9.64-.307-9.64-.307l-.273.735-.454 3.652s6.408 1.144 9.567 1.142c.322 0 .617-.048.887-.132.096-.085.19-.174.279-.27 1.34-1.451.953-3.582-.366-4.82"/></g><g transform="translate(93.1 192.5)"><mask id="J" fill="#fff"><use xlink:href="#H"/></mask><path fill="url(#I)" d="M0 4.764l1.651.132c.461.036.916-.157 1.262-.535.347-.38.556-.913.583-1.485.035-.716-.166-1.42-.555-1.95C2.55.394 2.005.079 1.425.05L.346 0 0 4.764z" mask="url(#J)"/></g><path fill="#FFB300" d="M55.209 192.762c3.02-.583 9.955-.012 9.955-.012l.263.754.373 3.724s-6.642.965-9.901.865a3.126 3.126 0 01-.911-.162 3.964 3.964 0 01-.282-.283c-1.345-1.515-.89-3.668.503-4.886"/><g transform="translate(63.7 192.5)"><mask id="M" fill="#fff"><use xlink:href="#K"/></mask><path fill="url(#L)" d="M2.163.015C1.576.022 1.015.322.61.845.202 1.368-.017 2.07 0 2.795c.015.58.215 1.125.558 1.52.342.395.798.605 1.266.583L3.5 4.823 3.257 0 2.163.015z" mask="url(#M)"/></g><g><path fill="#2EB4B7" d="M105.904 181.118c-1.326-3.068-4.569-3.565-7.33-2.131-.048.064-17.53 9.066-32.948 13.011.441 1.422.668 2.935.718 4.421.009.332.003.658-.016.981 11.823-.61 24.654-4.572 35.68-8.053 3.42-1.108 5.367-4.83 3.896-8.23"/><path fill="#34D4E0" d="M93.546 196.652c-.046-1.713.286-3.309.995-4.786.02-.067.045-.133.066-.2-.88-.273-2.018-.644-3.512-1.154-10.948-3.764-19.3-7.565-27.27-11.94-3.098-1.701-6.619-.562-7.611 3.119-.884 3.288 1.06 6.093 4.009 7.079 8.823 2.95 4.23 2.13 7.11 3.062 7.74 2.404 17.37 4.595 26.232 5.193-.007-.125-.014-.25-.019-.374"/></g><g transform="translate(74.2 147)"><mask id="P" fill="#fff"><use xlink:href="#N"/></mask><path fill="url(#O)" d="M3.41.412l-.107 3.92L0 4.933S1.183 9.9 6.927 9.798c5.85-.103 6.373-4.88 6.373-4.88l-3.822-.793L9.158 0 3.41.412z" mask="url(#P)"/></g><g transform="translate(76.3 135.1)"><mask id="S" fill="#fff"><use xlink:href="#Q"/></mask><path fill="url(#R)" d="M3.81 15.808c5.492 2.178 8.936-8.448 7.91-11.326C10.13.032 9.084.56 9.084.56L2.587 0s-6.565 12.722 1.222 15.808" mask="url(#S)"/></g><path fill="#174447" d="M88.925 133.664c3.185.907.463 8.063-4.333 6.37-4.795-1.691-6.68-1.666-7.427-.302-.748 1.363-.908 6.208-2.53 3.814-1.777-2.625-2.768-7.894-.589-9.593 1.948-1.518 2.403-3.872 4.74-3.79 3.1.108 5.499-1.316 6.898-.289 1.608 1.18.897 3.123 3.24 3.79"/><g transform="translate(75.6 140.7)"><mask id="V" fill="#fff"><use xlink:href="#T"/></mask><path fill="url(#U)" d="M.047.91C-.208 2.752.61 5.127 1.57 3.826c.959-1.303.324-3.232.324-3.232S1.274 0 .747 0c-.319 0-.604.216-.7.91" mask="url(#V)"/></g><g><path fill="#6FBFBB" d="M82.506 178c.136.916-.353 1.747-1.266 1.882a1.67 1.67 0 01-1.895-1.412c-.136-.915.282-1.824 1.194-1.959.913-.135 1.832.575 1.967 1.49"/><path fill="#DEFCFC" d="M135.895 103.282c0 16.507-13.34 29.889-29.797 29.889S76.3 119.789 76.3 103.282c0-16.507 13.34-29.889 29.798-29.889 16.457 0 29.797 13.382 29.797 29.89"/><path fill="#5F9392" d="M81.539 101.824l6.252-3.27v1.393a.558.558 0 01-.078.29.648.648 0 01-.261.225l-2.866 1.473a2.704 2.704 0 01-.382.162 5.514 5.514 0 01-.43.123c.151.037.295.078.43.123.133.044.26.099.382.162l2.866 1.481c.12.063.208.138.26.225.053.087.08.184.08.29v1.393l-6.253-3.278v-.792zm9.102 5.733V95.79h1.95v4.521c.316-.3.664-.543 1.042-.728.38-.185.824-.277 1.335-.277.442 0 .834.075 1.176.225.342.15.627.362.856.634.229.272.402.596.521.974.12.377.178.793.178 1.247v5.17h-1.95v-5.17c0-.496-.114-.88-.344-1.152-.228-.271-.571-.408-1.03-.408-.337 0-.653.077-.947.23a3.406 3.406 0 00-.837.626v5.875h-1.95zm11.637.127c-.7 0-1.24-.2-1.618-.598-.38-.399-.57-.95-.57-1.652v-4.537h-.82a.385.385 0 01-.272-.103c-.077-.068-.115-.17-.115-.308v-.776l1.302-.214.412-2.217a.388.388 0 01.145-.246.464.464 0 01.289-.087h1.01v2.558h2.131v1.393h-2.131v4.403c0 .253.064.451.19.594a.642.642 0 00.505.214.917.917 0 00.304-.044 1.827 1.827 0 00.375-.181.263.263 0 01.142-.045c.058 0 .105.016.142.045a.62.62 0 01.118.13l.584.95c-.283.238-.61.417-.979.538-.368.122-.75.183-1.144.183m3.45-.127v-8.125h1.191c.253 0 .42.12.498.357l.127.602c.141-.158.29-.304.445-.436.156-.132.321-.245.497-.34a2.502 2.502 0 011.236-.309c.51 0 .93.139 1.26.416.328.277.575.645.738 1.104.126-.27.284-.5.473-.693.19-.192.397-.35.624-.471.226-.12.467-.21.723-.27a3.5 3.5 0 01.769-.086c.447 0 .844.068 1.192.206.347.137.64.338.876.602.238.263.418.586.54.965.125.38.186.816.186 1.307v5.17h-1.95v-5.17c0-.517-.113-.907-.338-1.168-.227-.261-.558-.392-.996-.392-.2 0-.385.035-.556.103a1.337 1.337 0 00-.45.297c-.129.13-.23.292-.304.487-.073.196-.11.42-.11.673v5.17h-1.959v-5.17c0-.544-.11-.94-.328-1.188-.218-.248-.54-.372-.967-.372-.28 0-.541.07-.786.21-.244.14-.472.332-.683.574v5.947h-1.95zm13.421 0h1.95V95.79h-1.95zm4.918-1.663V104.5c0-.105.026-.202.079-.289a.63.63 0 01.26-.225l2.865-1.481c.232-.116.503-.211.814-.285a5.16 5.16 0 01-.43-.123 2.527 2.527 0 01-.384-.162l-2.865-1.473a.632.632 0 01-.26-.226.544.544 0 01-.08-.289v-1.394l6.253 3.27v.793l-6.252 3.278z"/><path fill="#DEFCFC" d="M200.695 90.014c0 14.54-11.751 26.328-26.247 26.328S148.2 104.554 148.2 90.014s11.75-26.327 26.247-26.327c14.496 0 26.247 11.787 26.247 26.327"/><path fill="#5F9392" d="M160.572 90.057l7.586-3.967v1.69a.675.675 0 01-.096.351.77.77 0 01-.317.274l-3.476 1.787a3.213 3.213 0 01-.465.197 5.728 5.728 0 01-.522.148c.186.046.36.096.522.15.163.054.318.12.465.196l3.476 1.797a.785.785 0 01.317.274.672.672 0 01.096.35v1.691l-7.586-3.977v-.96zm11.867 6.984a1.3 1.3 0 01-.527.658c-.115.074-.237.13-.364.169a1.273 1.273 0 01-.374.057h-.996l5.594-14.353c.108-.268.265-.475.469-.62.204-.143.45-.215.738-.215h1.005L172.44 97.04zm7.518-2.046v-1.69c0-.129.032-.245.096-.351a.774.774 0 01.316-.274l3.477-1.797c.28-.14.61-.256.987-.346a6.198 6.198 0 01-.523-.148 3.05 3.05 0 01-.464-.197l-3.477-1.787a.774.774 0 01-.316-.274.663.663 0 01-.096-.35V86.09l7.586 3.967v.961l-7.586 3.977z"/><path fill="#174447" d="M292.425 105.268a.298.298 0 01-.208-.512c.175-.171.348-.346.519-.522a.296.296 0 01.42-.007.299.299 0 01.007.422c-.174.18-.35.359-.53.534a.295.295 0 01-.208.085m-46.726-18.527a.297.297 0 01-.297-.285c-.017-.396-.026-.8-.026-1.2l.002-.292c0-.165.148-.302.3-.296a.297.297 0 01.294.301l-.001.286c0 .392.009.787.025 1.175a.297.297 0 01-.285.311h-.012m.286 2.939a.297.297 0 01-.294-.254 27.176 27.176 0 01-.184-1.48.298.298 0 01.266-.327.296.296 0 01.325.268c.047.483.109.971.18 1.45a.297.297 0 01-.248.34l-.045.003m.6 2.891a.299.299 0 01-.289-.222c-.125-.476-.24-.966-.342-1.453a.299.299 0 01.231-.353.299.299 0 01.352.231c.099.478.211.956.335 1.422a.299.299 0 01-.288.375m.905 2.81a.298.298 0 01-.278-.192 28.572 28.572 0 01-.495-1.407.297.297 0 11.566-.184c.15.462.312.926.485 1.378a.298.298 0 01-.278.405m1.198 2.698a.299.299 0 01-.266-.163 30.688 30.688 0 01-.64-1.348.297.297 0 11.543-.242 29.362 29.362 0 00.627 1.319.299.299 0 01-.264.434m1.474 2.555a.298.298 0 01-.25-.135c-.27-.417-.533-.845-.78-1.272a.3.3 0 01.11-.407.297.297 0 01.407.109c.24.418.496.836.761 1.244a.3.3 0 01-.248.461m1.737 2.383a.294.294 0 01-.231-.11c-.312-.383-.619-.78-.911-1.18a.299.299 0 01.481-.353c.285.392.585.78.89 1.156a.298.298 0 01-.229.487m1.98 2.18a.301.301 0 01-.21-.086c-.35-.346-.696-.708-1.03-1.075a.3.3 0 01.02-.422.297.297 0 01.42.02c.326.36.666.713 1.009 1.052a.299.299 0 01-.209.511m2.202 1.954a.292.292 0 01-.184-.065c-.387-.308-.771-.63-1.14-.957a.298.298 0 11.394-.447c.362.32.737.635 1.116.937a.299.299 0 01-.186.532m34.133.065a.3.3 0 01-.184-.534c.38-.3.758-.614 1.12-.933a.296.296 0 01.42.028.298.298 0 01-.028.42c-.37.326-.755.647-1.145.955a.294.294 0 01-.183.064m-31.732 1.641a.307.307 0 01-.159-.045 29.28 29.28 0 01-1.236-.83.3.3 0 01-.07-.417.295.295 0 01.414-.07c.395.28.801.553 1.21.812a.298.298 0 01-.159.551m29.324.055a.298.298 0 01-.158-.551c.41-.258.819-.53 1.213-.808a.299.299 0 01.343.488c-.404.285-.82.562-1.24.826a.306.306 0 01-.158.045m-26.755 1.385a.293.293 0 01-.131-.031 27.524 27.524 0 01-1.317-.693.298.298 0 11.29-.521c.422.237.856.464 1.29.678a.3.3 0 01-.132.567m24.18.045a.297.297 0 01-.268-.167.302.302 0 01.137-.4c.436-.212.87-.438 1.293-.673a.299.299 0 01.288.522c-.432.24-.876.47-1.32.688a.308.308 0 01-.13.03m-21.472 1.113a.302.302 0 01-.102-.019 28.02 28.02 0 01-1.384-.548.299.299 0 01.233-.549c.444.19.9.37 1.355.537a.299.299 0 01-.102.579m18.76.038a.299.299 0 01-.102-.579c.453-.164.91-.344 1.356-.533a.298.298 0 01.39.158.3.3 0 01-.158.392 28.58 28.58 0 01-1.385.544.303.303 0 01-.101.018m-15.945.824a.294.294 0 01-.072-.008c-.48-.12-.962-.254-1.434-.398a.299.299 0 01.173-.572c.463.142.936.273 1.404.39a.298.298 0 01-.071.588m13.126.03a.298.298 0 01-.07-.587c.469-.115.941-.245 1.405-.386a.297.297 0 01.37.2.297.297 0 01-.198.372c-.475.143-.957.276-1.435.393a.296.296 0 01-.072.009m-10.234.528l-.042-.003c-.49-.068-.985-.15-1.468-.243a.298.298 0 01.112-.587c.473.092.957.172 1.438.238a.3.3 0 01-.04.595m7.34.018a.299.299 0 01-.038-.595c.478-.063.962-.14 1.438-.23a.296.296 0 01.347.237.299.299 0 01-.237.349 27.077 27.077 0 01-1.51.239m-4.406.227h-.01a27.343 27.343 0 01-1.486-.085.297.297 0 01-.271-.322.296.296 0 01.32-.273c.482.04.971.069 1.454.083a.299.299 0 01-.007.597m1.473.003a.298.298 0 01-.008-.596c.482-.012.97-.037 1.455-.075a.3.3 0 01.32.275.297.297 0 01-.274.32c-.494.039-.994.064-1.485.076h-.008m-28.141-29.353h-.019a.3.3 0 01-.278-.318c.016-.25.036-.5.06-.751a.297.297 0 11.591.055c-.022.244-.041.49-.057.735a.298.298 0 01-.297.279m9.384-19.047a.296.296 0 01-.224-.103.296.296 0 01.03-.42c.187-.165.378-.328.572-.488a.3.3 0 01.42.041.301.301 0 01-.041.42c-.19.157-.377.316-.562.476a.292.292 0 01-.195.074m15.785-6.693a.297.297 0 01-.296-.274.297.297 0 01.272-.322 27.037 27.037 0 011.53-.085.303.303 0 01.306.29.3.3 0 01-.29.307c-.496.013-1 .041-1.497.082-.009.002-.017.002-.025.002m4.547 0l-.026-.001a25.72 25.72 0 00-1.498-.083.298.298 0 01.017-.597c.51.014 1.025.043 1.53.085a.298.298 0 01.272.323.297.297 0 01-.295.273m3.002.42c-.018 0-.037-.003-.057-.006-.49-.096-.987-.18-1.48-.249a.297.297 0 01-.253-.336.296.296 0 01.335-.255c.504.07 1.012.156 1.513.254a.298.298 0 01-.058.591m-10.551 0a.298.298 0 01-.058-.59c.5-.099 1.009-.184 1.512-.255a.295.295 0 01.335.254.297.297 0 01-.254.337c-.491.069-.99.153-1.478.25a.388.388 0 01-.057.005m13.49.746a.313.313 0 01-.09-.014 28.715 28.715 0 00-1.442-.41.296.296 0 01-.215-.361.297.297 0 01.361-.217c.494.126.99.267 1.474.419a.3.3 0 01-.088.584m-16.428.004a.3.3 0 01-.09-.583c.486-.153.982-.295 1.475-.421a.298.298 0 01.147.578c-.483.123-.969.262-1.443.412a.28.28 0 01-.089.014m19.267 1.06a.305.305 0 01-.12-.026c-.453-.199-.921-.39-1.389-.565a.299.299 0 01.209-.558c.477.178.955.373 1.42.577.15.066.219.241.153.392a.297.297 0 01-.273.18m-22.104.011a.298.298 0 01-.12-.572c.465-.205.943-.4 1.419-.58a.297.297 0 01.383.174.297.297 0 01-.173.384c-.467.176-.934.368-1.39.569a.297.297 0 01-.12.025m24.811 1.358a.297.297 0 01-.148-.04c-.43-.249-.875-.49-1.32-.714a.298.298 0 01-.131-.4.297.297 0 01.4-.133c.454.23.907.476 1.348.73a.3.3 0 01-.149.557m-27.515.016a.298.298 0 01-.149-.557 27.9 27.9 0 011.348-.731.298.298 0 01.268.532c-.443.225-.887.466-1.318.716a.3.3 0 01-.149.04m30.054 1.643a.3.3 0 01-.175-.057c-.4-.295-.816-.583-1.234-.856a.3.3 0 01-.087-.413.297.297 0 01.412-.087c.427.28.85.573 1.26.874a.298.298 0 01-.176.539m-32.592.019a.296.296 0 01-.24-.122.297.297 0 01.063-.417c.41-.302.833-.597 1.26-.876a.297.297 0 01.411.087.3.3 0 01-.086.413c-.418.273-.832.561-1.233.857a.294.294 0 01-.175.058m34.933 1.91a.298.298 0 01-.202-.079 26.754 26.754 0 00-1.13-.986.3.3 0 01-.041-.42.295.295 0 01.418-.04c.395.325.784.663 1.156 1.007a.298.298 0 01-.201.518m2.112 2.177a.296.296 0 01-.224-.103 27.094 27.094 0 00-1.015-1.105.3.3 0 01.006-.422.295.295 0 01.42.006c.355.366.704.745 1.038 1.13a.298.298 0 01-.225.494m1.86 2.398a.294.294 0 01-.244-.129c-.283-.41-.581-.817-.888-1.212a.3.3 0 01.053-.419.296.296 0 01.417.052c.313.404.618.821.907 1.24a.3.3 0 01-.245.468m1.587 2.59a.3.3 0 01-.263-.156 26.874 26.874 0 00-.749-1.303.298.298 0 01.508-.313c.266.437.524.884.765 1.332a.299.299 0 01-.261.441m1.296 2.749a.297.297 0 01-.275-.185c-.189-.462-.39-.925-.605-1.378a.299.299 0 11.539-.255c.217.463.425.936.617 1.407a.3.3 0 01-.276.411m.99 2.874a.296.296 0 01-.286-.216c-.138-.483-.29-.966-.451-1.435a.297.297 0 11.562-.195c.166.48.32.974.46 1.466a.298.298 0 01-.285.38m.667 2.966a.297.297 0 01-.293-.249c-.082-.491-.18-.988-.29-1.475a.3.3 0 01.224-.358.3.3 0 01.357.226c.112.5.212 1.006.295 1.508a.298.298 0 01-.293.348m.335 3.022a.297.297 0 01-.297-.282c-.028-.5-.07-1.003-.125-1.498a.298.298 0 11.592-.067c.057.507.099 1.022.127 1.533a.298.298 0 01-.28.314h-.017m.001 3.041h-.017a.298.298 0 01-.28-.315 28.19 28.19 0 00.041-1.504.298.298 0 01.595 0c0 .506-.014 1.024-.042 1.537a.298.298 0 01-.297.282m-.221 2.274c-.013 0-.027 0-.041-.003a.298.298 0 01-.254-.336c.034-.243.064-.488.092-.732a.297.297 0 01.329-.263c.163.018.28.165.263.33-.028.25-.06.5-.095.747a.296.296 0 01-.294.257m-3.603 2.33a.383.383 0 00-.11-.432l-3.554-3.02c.304-2.16.268-4.385-.143-6.592l3.416-3.172a.386.386 0 00.09-.437l-2.252-5.129a.381.381 0 00-.382-.227l-4.64.386a20.3 20.3 0 00-4.751-4.557l.18-4.669a.385.385 0 00-.245-.372l-5.207-2.03a.381.381 0 00-.431.11l-3.01 3.565a20.206 20.206 0 00-6.573.145l-3.162-3.427a.38.38 0 00-.435-.09l-5.114 2.259a.382.382 0 00-.227.383l.385 4.653a20.321 20.321 0 00-4.543 4.766l-4.654-.18a.383.383 0 00-.372.245l-2.024 5.224a.385.385 0 00.11.432l3.555 3.019a20.413 20.413 0 00.143 6.593l-3.416 3.171a.385.385 0 00-.09.437l2.252 5.129c.066.15.22.241.382.228l4.64-.386a20.295 20.295 0 004.751 4.556l-.179 4.669a.384.384 0 00.244.373l5.208 2.03a.381.381 0 00.43-.11l3.01-3.566c2.154.306 4.372.269 6.573-.144l3.162 3.426c.112.12.286.157.436.091l5.113-2.259c.15-.066.24-.22.228-.383l-.386-4.653a20.3 20.3 0 004.543-4.766l4.654.18a.384.384 0 00.372-.246l2.023-5.223z"/><path fill="#6FBFBB" d="M272.95 80.664a4.611 4.611 0 00-2.858.99 4.69 4.69 0 00-.812 6.564 4.66 4.66 0 008.307-2.3 4.665 4.665 0 00-.95-3.452 4.64 4.64 0 00-3.688-1.802m.015 9.951a5.247 5.247 0 01-4.153-2.03 5.29 5.29 0 01.915-7.402 5.214 5.214 0 013.879-1.075 5.216 5.216 0 013.501 1.992 5.254 5.254 0 011.072 3.892 5.245 5.245 0 01-1.986 3.51 5.221 5.221 0 01-3.228 1.113"/><path fill="#6FBFBB" d="M272.865 99.13c-5.3 0-10.362-3.082-12.63-8.25a13.772 13.772 0 01-1.17-5.552c0-5.315 3.074-10.392 8.226-12.668a13.656 13.656 0 0110.544-.235 13.714 13.714 0 017.62 7.313c.396.902.696 1.845.892 2.803a.298.298 0 11-.582.12 13.349 13.349 0 00-1.12-3.252l-.001-.002-.01-.02-.002-.005v-.001l-.004-.005a13.101 13.101 0 00-7.009-6.394 13.055 13.055 0 00-10.088.224c-4.93 2.177-7.87 7.036-7.871 12.121 0 1.778.36 3.583 1.118 5.312 2.93 6.673 10.728 9.711 17.38 6.773a13.173 13.173 0 005.443-4.453.298.298 0 01.486.346 13.776 13.776 0 01-11.222 5.825"/><path fill="#174447" d="M252.574 70.736a.297.297 0 01-.214-.09.3.3 0 01.007-.423c.176-.17.35-.343.52-.52a.297.297 0 01.42-.006c.117.115.12.304.007.422-.175.18-.352.358-.534.533a.29.29 0 01-.206.084m-37.197-14.113a.297.297 0 01-.296-.275 22.785 22.785 0 01-.07-1.527.299.299 0 01.294-.302c.162.002.3.13.301.295.006.495.03.996.068 1.487a.3.3 0 01-.273.322h-.024m.446 2.984a.298.298 0 01-.29-.234c-.11-.493-.203-1-.278-1.504a.297.297 0 11.588-.089c.073.491.165.984.27 1.464a.299.299 0 01-.29.363m.85 2.894a.298.298 0 01-.279-.195 21.988 21.988 0 01-.48-1.451.298.298 0 11.571-.169c.139.474.296.949.467 1.413a.298.298 0 01-.278.402m1.234 2.752a.296.296 0 01-.263-.158 24.818 24.818 0 01-.672-1.373.298.298 0 11.542-.245 21.943 21.943 0 00.655 1.336.299.299 0 01-.262.44m1.592 2.558a.297.297 0 01-.242-.123c-.296-.41-.582-.837-.85-1.269a.299.299 0 01.094-.411.296.296 0 01.41.095c.262.42.54.836.829 1.235a.298.298 0 01-.241.473m1.926 2.316a.291.291 0 01-.215-.092c-.35-.366-.692-.75-1.016-1.14a.298.298 0 11.457-.382c.315.38.648.753.988 1.11a.298.298 0 01-.214.504m2.225 2.029a.294.294 0 01-.185-.065c-.399-.315-.79-.649-1.163-.989a.3.3 0 01-.02-.421c.11-.122.3-.131.42-.02.363.33.744.654 1.132.962a.3.3 0 01.05.42.302.302 0 01-.234.113m26.62.52a.3.3 0 01-.242-.123.3.3 0 01.066-.417c.398-.291.791-.6 1.169-.917a.297.297 0 01.42.037.299.299 0 01-.037.42c-.389.327-.792.644-1.201.942a.288.288 0 01-.175.057m-24.14 1.184a.304.304 0 01-.15-.04c-.437-.259-.87-.535-1.287-.82a.3.3 0 01-.077-.416.296.296 0 01.413-.077c.406.279.827.547 1.253.798a.297.297 0 01-.152.555m21.593.422a.3.3 0 01-.141-.562c.434-.233.866-.485 1.283-.749a.296.296 0 01.41.095.296.296 0 01-.093.41 22.3 22.3 0 01-1.318.77.295.295 0 01-.14.036m-18.903.928a.28.28 0 01-.115-.024c-.466-.195-.932-.41-1.386-.636a.299.299 0 01.266-.535c.442.222.896.431 1.35.62a.3.3 0 01-.115.575m16.163.317a.3.3 0 01-.28-.193.299.299 0 01.175-.384c.46-.173.922-.364 1.372-.57a.298.298 0 01.246.544c-.462.21-.937.407-1.41.584a.294.294 0 01-.103.02m-13.316.652a.284.284 0 01-.076-.01c-.489-.13-.98-.279-1.46-.443a.298.298 0 01.191-.565c.468.16.947.304 1.422.431a.299.299 0 01-.077.587m10.433.209a.299.299 0 01-.066-.59c.482-.108.965-.235 1.436-.376a.296.296 0 01.37.201.297.297 0 01-.2.371c-.484.145-.98.275-1.475.386a.246.246 0 01-.065.008m-7.48.365a22.488 22.488 0 01-1.544-.242.298.298 0 01.114-.586c.483.094.977.172 1.466.234a.297.297 0 01-.036.594m4.506.092a.297.297 0 01-.296-.274.296.296 0 01.271-.322c.491-.041.987-.1 1.474-.175a.298.298 0 11.09.59c-.5.077-1.01.137-1.515.18h-.024m-1.81.075c-.404 0-.812-.01-1.213-.033a.3.3 0 01-.282-.314.298.298 0 01.313-.282c.492.027.987.038 1.484.03h.005a.298.298 0 01.004.597c-.104.002-.208.002-.311.002m-21.973-23.322h-.018a.3.3 0 01-.28-.316c.015-.251.034-.503.057-.753a.298.298 0 11.593.055c-.023.244-.04.488-.056.733a.297.297 0 01-.296.281m7.51-15.375a.298.298 0 01-.195-.523c.189-.165.381-.328.577-.487a.296.296 0 01.418.044.3.3 0 01-.044.42c-.19.155-.377.312-.56.472a.296.296 0 01-.196.074m12.761-5.362a.298.298 0 01-.022-.596c.496-.038 1-.06 1.5-.064h.002a.298.298 0 01.003.597c-.486.004-.977.025-1.46.062l-.023.001m4.435.111c-.013 0-.026 0-.038-.002a22.318 22.318 0 00-1.454-.136.298.298 0 01.034-.595c.497.029.999.076 1.495.139a.298.298 0 01-.037.594m-7.364.316a.298.298 0 01-.29-.236.297.297 0 01.228-.354c.487-.105.984-.195 1.477-.267a.3.3 0 01.337.252.3.3 0 01-.252.339c-.48.069-.963.157-1.437.26a.336.336 0 01-.063.006m10.268.254a.29.29 0 01-.077-.01 22.387 22.387 0 00-1.423-.33.297.297 0 01-.235-.35.297.297 0 01.35-.235c.488.096.98.21 1.461.339a.298.298 0 01-.076.586m-13.113.566a.299.299 0 01-.101-.579c.469-.17.949-.327 1.427-.465a.298.298 0 01.165.575c-.466.134-.933.286-1.39.451a.294.294 0 01-.1.018m15.914.39a.303.303 0 01-.114-.024 22.29 22.29 0 00-1.367-.517.299.299 0 01.191-.565c.472.16.944.34 1.404.531a.298.298 0 01.16.39.296.296 0 01-.274.184m-18.625.805a.298.298 0 01-.137-.563 22.62 22.62 0 011.353-.65.296.296 0 01.392.153.3.3 0 01-.153.393 22.675 22.675 0 00-1.317.634.311.311 0 01-.138.033m21.274.516a.3.3 0 01-.149-.04 20.68 20.68 0 00-1.286-.696.299.299 0 01.266-.535c.446.223.89.464 1.32.715a.299.299 0 01-.151.556m-23.801 1.029a.295.295 0 01-.243-.127.297.297 0 01.071-.415c.406-.287.828-.565 1.255-.826a.297.297 0 01.409.1.3.3 0 01-.1.41c-.416.253-.826.524-1.221.803a.295.295 0 01-.171.055m26.25.636a.294.294 0 01-.182-.063c-.38-.298-.778-.588-1.18-.862a.298.298 0 01.333-.494c.414.281.822.58 1.213.886a.3.3 0 01.052.42.3.3 0 01-.235.113m2.204 1.982a.294.294 0 01-.213-.09c-.339-.349-.693-.69-1.054-1.014a.3.3 0 01-.023-.422.297.297 0 01.42-.023c.37.334.735.684 1.083 1.042a.298.298 0 01-.213.507m1.915 2.261a.295.295 0 01-.239-.121c-.29-.392-.595-.778-.908-1.147a.298.298 0 11.454-.387c.321.38.635.776.932 1.18a.298.298 0 01-.239.475m1.596 2.5a.297.297 0 01-.262-.154c-.236-.43-.486-.854-.745-1.26a.298.298 0 11.501-.322c.266.418.524.853.766 1.294a.3.3 0 01-.26.443m1.249 2.692a.298.298 0 01-.278-.191 22.608 22.608 0 00-.572-1.349.297.297 0 11.538-.252c.212.455.41.921.589 1.385a.3.3 0 01-.277.407m.88 2.835a.3.3 0 01-.29-.23 21.085 21.085 0 00-.387-1.413.298.298 0 01.568-.177c.148.477.282.966.398 1.452a.3.3 0 01-.29.368m.491 2.927a.298.298 0 01-.295-.269c-.048-.482-.113-.97-.193-1.452a.297.297 0 11.586-.099c.083.494.15.996.199 1.492a.3.3 0 01-.267.327h-.03m.093 2.968h-.01a.297.297 0 01-.287-.308 23.42 23.42 0 00.004-1.466.296.296 0 01.288-.307.295.295 0 01.306.289 22.68 22.68 0 01-.004 1.505.298.298 0 01-.297.287m-.195 2.23c-.014 0-.028 0-.041-.003a.297.297 0 01-.254-.336c.033-.243.063-.486.089-.73a.297.297 0 11.591.062c-.025.25-.056.5-.091.75a.297.297 0 01-.294.257m-2.88 1.803a.308.308 0 00-.088-.346l-2.841-2.414a16.325 16.325 0 00-.115-5.27l2.73-2.536a.304.304 0 00.073-.348l-1.8-4.1a.307.307 0 00-.305-.183l-3.71.309a16.207 16.207 0 00-3.798-3.642l.143-3.733a.308.308 0 00-.195-.298l-4.163-1.622a.302.302 0 00-.344.088l-2.406 2.85a16.178 16.178 0 00-5.255.115l-2.527-2.739a.306.306 0 00-.348-.072l-4.088 1.805a.307.307 0 00-.182.307l.309 3.72a16.196 16.196 0 00-3.632 3.81l-3.721-.144a.307.307 0 00-.297.195l-1.618 4.177a.307.307 0 00.088.345l2.841 2.413a16.325 16.325 0 00.115 5.27l-2.73 2.536a.308.308 0 00-.073.35l1.8 4.099c.053.12.176.193.305.182l3.71-.308a16.228 16.228 0 003.798 3.642l-.143 3.732a.307.307 0 00.195.298l4.163 1.622c.122.048.26.013.344-.087l2.406-2.85c1.722.244 3.495.214 5.255-.115l2.527 2.738c.09.096.23.125.348.073l4.088-1.806a.307.307 0 00.182-.306l-.309-3.72a16.26 16.26 0 003.633-3.81l3.72.144c.13.005.25-.074.297-.196l1.618-4.176z"/><path fill="#6FBFBB" d="M237.112 50.963c-.813 0-1.597.27-2.248.779a3.66 3.66 0 00-1.386 2.45c-.12.975.145 1.939.748 2.714a3.647 3.647 0 002.442 1.39 3.639 3.639 0 002.706-.75 3.664 3.664 0 001.386-2.45 3.665 3.665 0 00-.748-2.714 3.636 3.636 0 00-2.442-1.39 3.718 3.718 0 00-.458-.029m.016 7.958a4.234 4.234 0 01-3.372-1.648c-.7-.901-1.008-2.021-.868-3.155s.711-2.145 1.61-2.847a4.229 4.229 0 013.146-.872 4.235 4.235 0 012.838 1.616 4.29 4.29 0 01-.742 6.002 4.23 4.23 0 01-2.612.904"/><path fill="#6FBFBB" d="M237.044 65.725a11.09 11.09 0 01-10.152-6.63 11.078 11.078 0 01-.94-4.463c.001-4.272 2.471-8.353 6.612-10.182a10.98 10.98 0 018.475-.188 11.02 11.02 0 016.125 5.877c.294.671.523 1.37.68 2.081l.037.172a.297.297 0 11-.582.12 10.687 10.687 0 00-.68-2.132 10.424 10.424 0 00-5.796-5.562 10.38 10.38 0 00-8.019.179c-3.918 1.73-6.256 5.592-6.256 9.634 0 1.413.285 2.849.889 4.223 2.33 5.304 8.527 7.718 13.815 5.383a10.468 10.468 0 004.326-3.54.297.297 0 01.54.174c0 .06-.017.12-.055.172a11.058 11.058 0 01-4.571 3.74c-1.448.64-2.96.942-4.448.942"/></g></g></svg>