<svg xmlns="http://www.w3.org/2000/svg" width="360" height="201"><g fill="none" fill-rule="evenodd"><path fill="#9C57AD" d="M192.655 154.672c-.729 0-1.45-.025-2.159-.076-9.933-.706-16.342-6.147-18.045-15.32-.32-1.725-.604-3.32-.88-4.862-1.11-6.24-1.914-10.748-3.32-13.671-1.423-2.956-3.466-4.196-6.819-4.146l-.006-.423.205-.001c7.123 0 8.145 5.736 10.36 18.167.275 1.542.559 3.136.879 4.858 1.664 8.967 7.935 14.285 17.657 14.976 6.397.456 13.743-1.192 20.158-4.52 6.491-3.367 11.141-8.032 12.756-12.797 1.982-5.85 5.386-8.773 7.89-10.194 2.724-1.546 4.947-1.699 5.04-1.705l.027.423c-.022 0-2.236.157-4.874 1.66-2.435 1.387-5.744 4.239-7.68 9.952-1.65 4.867-6.374 9.62-12.963 13.037-5.772 2.994-12.296 4.642-18.226 4.642"/><path fill="#FFB27D" d="M273 97.936s-7.237 13.579-8.438 14.592c-1.2 1.013-12.63 7.14-12.63 7.14l.966 2.583s14.497-4.054 17.076-5.866c2.578-1.813 9.65-18.028 9.65-18.028l-6.624-.42zm-21.336 21.614s-1.112.341-2.145.198c-1.034-.142-3.44.712-3.19 1.167.251.455 1.084.01 1.105.586.022.575-2.633 2.183-2.21 2.83.422.647 1.501.92 3.528.17 2.026-.75 3.856-2.29 3.856-2.29l-.944-2.661zm36.066 48.845l5.148 25.451h5.267s3.725-23.938.282-27.25c-3.443-3.314-10.697 1.8-10.697 1.8m-16.21-.861l.163 26.311 4.627-.387s8.886-21.504 6.179-25.423c-2.708-3.92-10.97-.5-10.97-.5"/><path fill="#215E60" d="M271.606 193.15s-.907 1.816-2.914 2.265c-1.265.284-2.347.96-3.02 1.907-.57.801-.02 1.928.946 1.928h10.19c.868 0 1.546-.77 1.458-1.656a58.406 58.406 0 01-.19-2.37c-.075-1.513-1.548-2.729-1.548-2.729l-4.922.655z"/><path fill="#FFB300" d="M293.687 166.928c-.29 2.25-1.106 3.897-2.551 4.545-4.019 1.802-8.576 1.66-12.467.913a35.157 35.157 0 01-2.446-.565c-3.938-1.053-6.73-2.494-6.73-2.494l3.385-34.071c3.838-.79 9.085.985 14.162 8.806 4.591 7.07 7.4 17.013 6.647 22.866"/><path fill="#E59900" d="M293.809 166.928c-.29 2.25-1.108 3.897-2.555 4.545-4.023 1.802-8.586 1.66-12.483.913a35.085 35.085 0 01-2.448-.565c-.775-14.968 4.665-28.743 6.279-30.658 5.16 7.94 10.962 19.412 11.207 25.765"/><path fill="#215E60" d="M292.544 193.15s-.906 1.816-2.913 2.265c-1.265.284-2.348.96-3.021 1.907-.57.801-.02 1.928.946 1.928h10.19c.868 0 1.545-.77 1.459-1.656a53.45 53.45 0 01-.19-2.37c-.075-1.513-1.55-2.729-1.55-2.729l-4.92.655z"/><path fill="#5C2767" d="M296.963 75.31c.627-2.694-.146-4.682-1.394-6.598-1.198-1.836-2.88-1.915-4.496-3.47-1.523-1.465-4.36-2.428-6.617-2.428-7.226 0-13.483 4.38-12.057 11.807.454 2.36.07 4.22 2.003 6.978 2.411 3.443 5.343 6.206 10.054 6.206 2.499 0 4.69-.57 6.617-2.375 1.049-.982 2.554-1.103 3.478-2.172 1.867-2.16 1.727-5.006 2.412-7.948"/><path fill="#FFB300" d="M278.95 136.597l4.463 36.919s9.457 2.23 19.852-1.036c0 0-3.098-35.388-5.588-37.969-2.49-2.58-18.728 2.086-18.728 2.086"/><path fill="#FFB27D" d="M278.274 93.39l9.002 4.546 1.805-6.171s-1.147-2.136-1.666-5.634a23.18 23.18 0 01-.186-5.08l-7.335 3.71s.174.672.292 1.66c.125 1.07.18 2.51-.127 3.878-.265 1.176-.797 2.297-1.785 3.09"/><path fill="#29C0D3" d="M300.563 135.837a2.44 2.44 0 01-1.872 2.366s-.256.042-.73.107c-3.164.443-16.013 1.97-26.084-.756-2.265-.613-.126-5.897.063-8.23l.74-35.185s2.876-2.243 6.161-2.658c-.04 1.297.323 2.481 2.608 2.78 3.039.394 5.755-1.673 7.132-3.079 3.244.359 4.228.376 8.369 1.967l.596 7.043.378 4.484 2.6 30.73c.025.144.039.29.039.431"/><path fill="#ED975D" d="M279.625 89.831c4.212-.107 7.43-4.052 7.43-4.052l-7.303.281c.127 1.04.183 2.44-.127 3.771"/><path fill="#FFB27D" d="M279.857 87.73s9.024 1.131 9.217-5.408c.193-6.539-3.569-10.775-6.08-10.727-5.006.097-5.832 2.178-6.412 4.344-.58 2.167-.88 11.33 3.275 11.791"/><path fill="#FFF" d="M282.326 83.68s-.21.892-2.334.728c0 0-1.782-.138-1.716-1.12 0 0 1.737-.677 4.05.393"/><path fill="#5C2767" d="M278.95 71.287s8.072-.005 6.217 5.257c-1.17 3.316 2.718 3.831 2.718 3.831l1.871-5.315-1.172-4.14-9.635.367z"/><path fill="#29C0D3" d="M273.19 94.56l-3.697 7.447s2.846 2.68 5.293 1.848c2.446-.833-1.596-9.296-1.596-9.296"/><path fill="#22A8B2" d="M297.861 105.297s-2.24 15.148-20.61 14.926c-3.23-.04 18.448-19.991 19.879-19.579a.81.81 0 01.358.22l.373 4.433z"/><path fill="#FFB27D" d="M290.56 97.936s-7.237 13.579-8.437 14.592c-1.2 1.013-12.63 7.14-12.63 7.14l.966 2.583s14.497-4.054 17.076-5.866c2.578-1.813 9.65-18.028 9.65-18.028l-6.624-.42z"/><path fill="#FFB27D" d="M268.99 119.55s-3.764 1.017-4.347 1.531c-.583.515-1.83 1.918-.887 2.386.944.468 1.81-.421 2.879-.468 1.068-.047 2.606-.112 3.349-.898.743-.786-.993-2.551-.993-2.551"/><path fill="#FFB27D" d="M268.818 119.65s-2.765-.226-2.7 0c.065.228.181.36 1.079.545.897.186 1.621-.544 1.621-.544"/><path fill="#29C0D3" d="M288.567 91.182s-3.034 9.298-2.856 10.728c0 0 3.978 5.184 11.067 1.394 0 0 3.883-6.848.109-10.153-1.96-1.717-8.32-1.969-8.32-1.969"/><path fill="#693875" d="M135.084 199.25h35.798v-29.719h-35.798z"/><path fill="#9C57AD" d="M152.645 199.25h35.798v-29.719h-35.798z"/><path fill="#844793" d="M152.645 169.531h35.798v9.449l-35.798 20.27z"/><path fill="#9C57AD" d="M152.645 170.206l7.108 7.43h35.444l-6.632-7.43zm-17.561 21.614h5.404l-.476-1.576.476-1.126h-5.404zm-.143-21.614l-7.962 7.43h17.716l7.95-7.43z"/><path fill="#FFB27D" d="M84.952 101.989s13.14 8.432 14.705 8.733c1.567.3 14.745.048 14.745.048l.42 2.768s-14.88 3.614-18.065 3.29c-3.186-.325-19.083-10.14-19.083-10.14l7.278-4.7z"/><path fill="#FFB27D" d="M114.146 111.182s1.169-.273 2.035-.924c.866-.652 3.447-1.142 3.44-.62-.01.522-.974.562-.72 1.07.255.51 3.423.543 3.35 1.319-.073.776-.918 1.563-3.107 1.95-2.19.387-4.58-.01-4.58-.01l-.418-2.785z"/><path fill="#B472C4" d="M83.752 156.023H45.93V128.46c0-10.517 8.467-19.043 18.912-19.043 10.444 0 18.911 8.526 18.911 19.043v27.562z"/><path fill="#844793" d="M109.418 155.347c0 .56-.232 1.068-.604 1.434a2.074 2.074 0 01-1.457.592H47.99c-1.139 0-2.061-.906-2.061-2.026 0-.56.23-1.068.603-1.434a2.072 2.072 0 011.458-.592h59.367c1.137 0 2.061.906 2.061 2.026"/><path fill="#844793" d="M52.683 157.373l-1.207 7.64-5.286 33.44a.983.983 0 01-.97.797h-.018a.617.617 0 01-.622-.665l3.279-37.036.368-4.176h4.456zm22.289 0l1.207 7.64 5.286 33.44c.085.46.493.797.97.797h.018a.618.618 0 00.622-.665l-3.279-37.036-.368-4.176h-4.456zm22.288 0l1.207 7.64 5.287 33.44c.085.46.493.797.971.797h.018a.615.615 0 00.62-.665l-3.278-37.036-.368-4.176H97.26z"/><path fill="#A83F3F" d="M97.26 157.373l1.183 7.43c1.093-2.207 2.631-3.05 3.546-3.369l-.361-4.06H97.26z"/><path fill="#FFB27D" d="M84.428 101.495l-9.003 4.546-1.804-6.17s1.148-2.136 1.667-5.634c.216-1.472.323-3.185.185-5.081l7.336 3.712s-.176.67-.294 1.658l-.028.258c-.102 1.036-.128 2.36.156 3.62.035.153.073.303.117.453.293 1.007.808 1.947 1.668 2.638"/><path fill="#174447" d="M85.986 190.425s-.068 2.26 1.762 3.797c1.152.968 1.898 2.217 2.071 3.506.145 1.09-1.049 1.882-2.049 1.353l-10.55-5.585c-.898-.476-1.173-1.594-.591-2.407a60.07 60.07 0 001.51-2.197c.915-1.427 3.115-1.8 3.115-1.8l4.732 3.333zm30.822.719s1.473 1.748 3.822 1.707c1.479-.026 2.856.428 3.849 1.286.838.726.513 2.106-.561 2.362l-11.339 2.705a1.677 1.677 0 01-2.046-1.426c-.113-.87-.256-1.88-.394-2.646-.303-1.676 1.026-3.399 1.026-3.399l5.643-.589z"/><path fill="#22A8B2" d="M60.789 137.11s-5.76 12.05-2.238 15.321c3.522 3.27 39.067 2.926 40.099 2.926 1.032 0-.689 17.157 10.498 37.814 0 0 5.64-.294 8.375-2.187 0 0-7.17-42.684-9.408-45.094-2.237-2.41-31.04-6.858-31.04-6.858l-16.286-1.921z"/><path fill="#29C0D3" d="M57.774 137.786s-3.087 13.647-.975 15.886c2.113 2.239 32.199 8.504 33.307 9.291 1.108.788-6.13 5.312-11.013 25.484 0 0 5.683 3.292 8.564 2.603 0 0 18.413-26.585 16.95-32.394-1.764-7.015-22.934-15.491-30.447-17.558-7.513-2.068-16.386-3.312-16.386-3.312"/><path fill="#793E87" d="M87.566 126.14a241.246 241.246 0 01-.84 10.954c-.207 2.097-.363 3.371-.363 3.371s-4.54 6.15-27.956 6.102c-1.607-.003-3.031-.964-3.022-2.59.053-10.3 7.565-32.267 10.138-39.757 1.34-3.896 5.29-6.214 9.3-5.47 2.772.513 6.005 1.193 8.967 2.02 4.17 1.164 4.35 14.478 3.776 25.37"/><path fill="#793E87" d="M84.749 101.313l6.433 4.813s-1.48 7.464-5.374 8.004c-3.894.541-1.06-12.817-1.06-12.817"/><path fill="#FFB27D" d="M97.26 125.036s4.77-1.098 5.574-.651c.803.445 2.532 3.27 2.532 3.27h-7.35l-.755-2.62z"/><path fill="#ED975D" d="M82.402 98.6c-3.104.282-7.43-4.445-7.43-4.445 3.167-.558 5.583-.193 7.159.526-.102.997-.128 2.27.154 3.483.035.146.073.291.117.435"/><path fill="#FFB27D" d="M84.231 95.574s-8.012 2.108-10.777-4.24c-2.983-6.852.29-11.844 3.011-12.18 5.426-.672 8.578 1.39 9.531 3.568.954 2.18 2.657 11.728-1.765 12.852"/><path fill="#FFF" d="M81.05 92.085s.337.735 2.458.322c0 0 1.781-.346 1.58-1.176 0 0-1.848-.356-4.037.854"/><path fill="#205E60" d="M74.65 93.884s-.935-2.756-.823-4.227c0 0-2.08-2.664-.869-3.323 1.212-.66 1.867.917 2.145.607.278-.309.71-5.543 2.184-5.378 1.472.165 6.918 1.86 9.306-.207 2.388-2.068-3.405-10.147-13.222-7.027-9.817 3.121-7.813 14.082 1.28 19.555"/><path fill="#205E60" d="M69.035 77.647s-.336-1.167.025-2c0 0 .018 1.148.405 1.658.386.511-.43.342-.43.342"/><path fill="#205E60" d="M68.893 77.004s-1.376-.111-2.026.64c0 0 .97-.465 1.95.03l.076-.67z"/><path fill="#5C2767" d="M87.805 126.247c-.228 4.3-.575 8.22-.837 10.842-20.867.95-17.142-29.021-17.142-29.021L87.17 126.03s.233.077.635.217"/><path fill="#FFB27D" d="M68.218 104.23s4.6 17.696 8.94 23.425h21.454l-.759-2.49s-8.664-2.496-15.047-3.612c-.863-.151-3.056-27.416-14.588-17.323"/><path fill="#793E87" d="M80.375 108.755s-3.535-9.254-10.317-7.123c-6.78 2.131-.649 13.865-.649 13.865s8.514-1.329 10.966-6.742"/><path fill="#3662C1" d="M303.318 199.25a.867.867 0 01-.863-.694l-4.233-23.493-6.089-33.787-1.701-9.447 4.336-.122.752 5.485 5.283 38.542 3.132 22.846c.048.355-.241.67-.617.67"/><path fill="#3A49CD" d="M295.835 137.127c-2.61 1.2-3.147 4.036-3.147 4.036l-1.581-9.336 4.029-.12.699 5.42z"/><path fill="#3662C1" d="M87.076 199.25c.426 0 .79-.294.863-.694l4.233-23.493 6.089-33.787 1.701-9.447-4.335-.122-.753 5.485-5.283 38.542-3.132 22.846c-.048.355.241.67.617.67"/><path fill="#3A49CD" d="M95.235 137.127c2.61 1.2 3.146 4.036 3.146 4.036l1.581-9.336-4.028-.12-.7 5.42z"/><path fill="#3662C1" d="M304.943 135.084H78.022c-2.049 0-3.726-1.671-3.726-3.714 0-2.044 1.677-3.715 3.726-3.715h226.92c2.05 0 3.726 1.671 3.726 3.714 0 2.044-1.676 3.715-3.725 3.715"/><path fill="#22A8B2" d="M211.353 92.101c-3.957 1.626-4.942-1.168-6.115-1.95-2.281-1.522-2.343-3.145-1.658-4.815 1.125-2.741-2.448-3.939-1.45-7.634.997-3.695 2.136-3.043 2.562-6.122.34-2.461 3.602-3.548 5.37-3.633 2.264-.108 4.795-2.235 7.454-1.656 2.66.58 3.159 1.594 4.37 1.812 1.21.217 3.715-.124 7.479 3.694 3.677 3.731 2.234 5.2 2.662 7.083.428 1.883.677 6.32-.961 7.262-1.638.942-2.51 4.405-4.22 4.492-3.206.163-3.58 2.163-5.557 2.513-1.533.271-2.208-.629-4.657.639-1.309.677-3.516-2.41-5.279-1.685"/><path fill="#ED975D" d="M201.276 138.475s6.943 49.286 6.141 55.371l4.382-.533s5.482-21.514 4.822-27.534c-.658-6.021 5.433-30.834-.187-33.015-5.62-2.18-15.158 5.71-15.158 5.71"/><path fill="#FFB27D" d="M207.355 138.652s9.8 49.701 9.379 55.87l4.29-1.01s4.168-22.344 3.152-28.357c-1.018-6.013 3.488-31.342-2.196-33.186-5.685-1.845-14.625 6.683-14.625 6.683"/><path fill="#29C0D3" d="M207.57 193.145s-1.051 1.926-3.057 2.373c-1.263.282-2.342.944-3.01 1.867-.566.78-.009 1.87.957 1.865l10.192-.058a1.462 1.462 0 001.448-1.615 50.933 50.933 0 01-.202-2.299c-.084-1.466-1.678-2.783-1.678-2.783s-1.399.8-1.94.894c-1.173.205-2.71-.244-2.71-.244"/><path fill="#22A8B2" d="M217.027 193.145s-1.052 1.926-3.058 2.373c-1.263.282-2.343.944-3.01 1.867-.566.78-.009 1.87.957 1.865l10.191-.058a1.463 1.463 0 001.45-1.615 51.046 51.046 0 01-.204-2.299c-.083-1.466-1.678-2.783-1.678-2.783s-1.399.8-1.938.894c-1.174.205-2.71-.244-2.71-.244"/><path fill="#FFB27D" d="M205.262 95.235s-6.69 11.32-8.039 20.55c0 0 3.254 4.406 4.577 1.312 1.324-3.093 10.822-19.656 3.462-21.862"/><path fill="#22A8B2" d="M206.68 76.118c.071-.12 3.047-4.823 8.61-5.762 4.505-.76 8.724 2.423 9.417 6.939.697 4.538-.015 10.418-7.42 12.536L206.68 76.118z"/><path fill="#FFB27D" d="M208.03 95.73l8.088 4.908 2.043-5.814s-.936-2.12-1.21-5.51a23.162 23.162 0 01.131-4.886l-7.033 3.12s.123.653.172 1.61c.052 1.033.018 2.419-.35 3.714-.316 1.112-.877 2.157-1.841 2.859"/><path fill="#ED975D" d="M210.056 93.204c4.071.159 7.43-3.877 7.43-3.877l-7.063-.171c.055 1.126.02 2.637-.367 4.048"/><path fill="#FFB27D" d="M208.5 90.627s7.736 2.636 10.848-3.583c3.359-6.71.458-11.948-2.192-12.46-5.286-1.023-8.51.852-9.582 2.986-1.073 2.134-3.343 11.643.927 13.057"/><path fill="#FFF" d="M211.407 87.458s-.394.653-2.512.167c0 0-1.778-.406-1.514-1.154 0 0 1.898-.23 4.026.987"/><path fill="#215E60" d="M228.271 159.566c-2.27 2.17-19.036 6.658-28.485 3.432-1.693-.578 1.017-52.864 2.631-62.96a6.358 6.358 0 015.417-5.3c.469-.065.977-.125 1.527-.179-.117 1.242.306 2.408 2.469 2.833 2.878.562 5.598-1.253 6.997-2.517 2.253.47 3.563.643 5.351 1.39a4.704 4.704 0 012.845 4.97l-.54 3.986-1.72 12.702a16.745 16.745 0 00.035 4.805c.734 4.827 1.9 16.589 2.68 25.534.549 6.293.908 11.193.793 11.304"/><path fill="#174447" d="M227.617 148.593c-.25-.288-16.28-18.83-16.857-28.694-.58-9.943 8.042-17.206 8.042-17.206 3.435-.225 5.972.89 7.812 2.908l-1.735 12.688c-.22 1.592-.208 3.21.037 4.8.74 4.822 1.914 16.569 2.701 25.504"/><path fill="#22A8B2" d="M213.734 75.614s-.728 7.454 6.105 10.096c2.717 1.05 4.131-10.336-1.546-12.61-5.677-2.273-11.275.427-11.944 4.402-.669 3.975-.16 4.803-.16 4.803s2.657-7.56 7.545-6.691"/><path fill="#FFB27D" d="M218.128 99.775s-3.193 12.547-3.317 17.537c0 0-7.006 12.16-7.417 13.024-.412.865 2.529 2.047 2.529 2.047s8.79-9.314 10.483-13.23c1.695-3.914 7.705-16.643 5.3-20.44-2.405-3.8-7.578 1.062-7.578 1.062m-20.888 15.732s-.606 8.683 5.309 15.525c0 0 1.614-2.03 1.41-2.661-.203-.63-2.518-10.31-4.209-11.685-1.69-1.377-2.51-1.179-2.51-1.179"/><path fill="#FFB27D" d="M207.503 130.357s-3.955-.03-4.176.927c-.22.956 1.017 3.95 3.91 2.907 2.892-1.043 2.82-1.695 2.82-1.695l-2.554-2.14z"/><path fill="#FFB27D" d="M203.552 127.655s3.356 1.538 2.215 3.178c-1.14 1.64-3.42.66-3.772-.39-.353-1.05 1.557-2.788 1.557-2.788"/><path fill="#215E60" d="M215.515 106.083s4.116 3.872 10.464 3.272c0 0 3.127-11.21-1.889-12.585-5.016-1.376-9.16 5.267-8.575 9.313m-11.792-8.823l-3.798 6.258s.49 2.904 3.33 3.192c2.843.29.468-9.45.468-9.45"/><path fill="#844793" d="M257.336 127.655h16.885c0-.747-.602-1.351-1.345-1.351h-15.54v1.35z"/><path fill="#844793" d="M257.682 109.418H231.67l6.239 18.237h26.181z"/><path fill="#9C57AD" d="M230.994 109.418l6.239 18.237h26.182l-6.409-18.237z"/><path fill="#693875" d="M245.213 118.199c.168.746.893 1.35 1.62 1.35.727 0 1.18-.604 1.012-1.35-.168-.745-.893-1.351-1.62-1.351-.727 0-1.18.606-1.012 1.35"/><path fill="#844793" d="M230.994 109.418l6.178 18.237h12.059l-14.444-18.237zm-55.39 3.797a.627.627 0 01-.228.568.745.745 0 01-.998-.05c-.265-.27-1.133-.977-1.943-.976-.383 0-.727.162-1.05.494-1.243 1.278.525 3.162.543 3.181a.625.625 0 01-.06.926.745.745 0 01-.998-.056c-.912-.958-2.197-3.22-.533-4.931.592-.607 1.319-.927 2.104-.926.693 0 1.41.243 2.132.719.5.33.822.656.856.693a.619.619 0 01.175.358"/><path fill="#844793" d="M171.557 112.918a.574.574 0 01-.133.37.498.498 0 01-.734.041l-1.663-1.594a.581.581 0 01-.038-.783.496.496 0 01.733-.04l1.663 1.593c.114.11.173.261.172.413"/><path fill="#9C57AD" d="M169.995 112.203l-.135.091a2.97 2.97 0 01-.48.265l-.005.001a2.912 2.912 0 01-3.227-.642c-1.78-1.8-4.135-3.049-7.035-3.725-.111-.026-.222-.05-.332-.074a20.276 20.276 0 00-2.947-.406 2.644 2.644 0 01-2.455-2.416l-.008-.091-.042-.455c-.105-1.142.797-2.118 1.924-2.086 1.102.031 2.558.147 4.182.47 1.088.214 2.25.52 3.435.957 2.598.955 5.299 2.526 7.52 5.095a2.046 2.046 0 01-.395 3.016"/><path fill="#844793" d="M169.531 112.565a3.062 3.062 0 01-3.291-.628c-1.816-1.761-4.22-2.984-7.176-3.646-.114-.026-.227-.05-.34-.072.26-2.385.53-4.807.53-4.807l.137-.072c1.11.21 2.297.51 3.505.937 0 0-.559 2.4 1.464 3.562 2.023 1.161 3.684 5.222 5.171 4.726"/><path fill="#693875" d="M138.493 101.989c-1.012-.98-.645-2.632-.63-2.702l.966.296-.483-.148.484.145c-.002.01-.218 1.02.307 1.527l-.644.882z"/><path fill="#844793" d="M151.938 101.989c1.012-.98.646-2.632.63-2.702l-.966.296.483-.148-.483.145c.001.01.217 1.02-.307 1.527l.643.882z"/><path fill="#693875" d="M149.29 99.962h-11.525c-3.703 0-6.733-3.039-6.733-6.753v-.001c0-3.715 3.03-6.754 6.733-6.754h11.524c3.704 0 6.734 3.04 6.734 6.754 0 3.715-3.03 6.754-6.734 6.754"/><path fill="#B472C4" d="M154.017 99.962h-11.524c-3.703 0-6.733-3.039-6.733-6.754 0-3.715 3.03-6.754 6.733-6.754h11.524c3.703 0 6.733 3.04 6.733 6.754 0 3.715-3.03 6.754-6.733 6.754"/><path fill="#693875" d="M144.878 95.235c-1.3 0-2.364-1.139-2.364-2.53v-.344c0-1.391 1.063-2.53 2.364-2.53 1.3 0 2.364 1.139 2.364 2.53v.344c0 1.391-1.064 2.53-2.364 2.53m9.456 0c-1.3 0-2.364-1.139-2.364-2.53v-.344c0-1.391 1.063-2.53 2.364-2.53 1.3 0 2.364 1.139 2.364 2.53v.344c0 1.391-1.064 2.53-2.364 2.53m-6.199 32.42h-11.241c-3.968 0-7.213-3.29-7.213-7.312V107.95c0-4.022 3.246-7.312 7.213-7.312h11.24c3.968 0 7.213 3.29 7.213 7.311v12.394c0 4.022-3.245 7.312-7.213 7.312"/><path fill="#B472C4" d="M154.213 127.655h-11.24c-3.968 0-7.213-3.29-7.213-7.312V107.95c0-4.022 3.245-7.312 7.213-7.312h11.24c3.967 0 7.213 3.29 7.213 7.311v12.394c0 4.022-3.246 7.312-7.213 7.312"/><path fill="#9C57AD" d="M133.734 105.525v.002l-.004.519v.102a3.034 3.034 0 01-2.578 2.991c-1.05.16-2.341.428-3.717.876-3.26 1.062-5.842 2.717-7.707 4.939a3.38 3.38 0 01-4.222.801l-.165-.091c-.607-.336-1-.9-1.139-1.523a2.289 2.289 0 01.387-1.857c4.905-6.709 12.768-8.469 16.73-8.93a2.168 2.168 0 012.415 2.17"/><path fill="#693875" d="M164.941 127.655h-11.083c-1.781 0-3.239-1.52-3.239-3.377 0-1.858 1.458-3.377 3.24-3.377h11.082c1.781 0 3.24 1.52 3.24 3.377 0 1.857-1.459 3.377-3.24 3.377"/><path fill="#844793" d="M161.564 127.655h-11.083c-1.781 0-3.239-1.52-3.239-3.377 0-1.858 1.458-3.377 3.24-3.377h11.082c1.781 0 3.239 1.52 3.239 3.377 0 1.857-1.457 3.377-3.239 3.377"/><path fill="#693875" d="M156.16 127.655h-11.083c-1.78 0-3.238-1.52-3.238-3.377 0-1.858 1.458-3.377 3.24-3.377h11.081c1.782 0 3.24 1.52 3.24 3.377 0 1.857-1.458 3.377-3.24 3.377"/><path fill="#9C57AD" d="M155.347 122.546v3.465c0 .903-.71 1.644-1.578 1.644h-14.404c-.869 0-1.579-.741-1.579-1.644v-3.465c0-.905.71-1.645 1.579-1.645h14.404c.868 0 1.578.74 1.578 1.645"/><path fill="#844793" d="M155.347 125.755v.255c0 .904-.71 1.645-1.578 1.645h-14.404c-.869 0-1.579-.74-1.579-1.645v-3.464c0-.906.71-1.645 1.579-1.645h5.273c1.203 1.958 4.122 4.952 10.71 4.854"/><path fill="#9C57AD" d="M142.514 100.638h8.105v-1.351h-8.105z"/><path fill="#693875" d="M139.137 100.638h4.728v-1.351h-4.728z"/><path fill="#9C57AD" d="M154.461 106.189l-3.351 4.06a1.45 1.45 0 01-2.225 0l-1.34-1.624-2.14-2.595c-.445-.538-.053-1.34.652-1.34h7.672c.79 0 1.23.897.732 1.499"/><path fill="#844793" d="M154.452 106.189l-3.494 4.06c-.595.694-1.722.694-2.318 0l-1.398-1.624c3.056-.695 4.227-2.727 4.66-3.935h1.787c.824 0 1.281.897.763 1.499m-20.718-.823l-.004.525v.105a3.068 3.068 0 01-2.586 3.036 23.187 23.187 0 00-3.727.89c-3.27 1.077-5.86 2.758-7.729 5.013-1.044 1.26-2.812 1.607-4.235.814l-.165-.092a2.336 2.336 0 01-1.142-1.546c1.324.834 3.008 1.347 4.291-.132 2.47-2.85 7.646-5.07 11.493-5.899 3.761-.808 3.804-2.633 3.804-2.714m-19.72 16.879a.811.811 0 01-.695-.253.774.774 0 01.06-1.109c.33-.295 1.192-1.26 1.19-2.161 0-.426-.198-.807-.605-1.165-1.563-1.38-3.864.586-3.886.606a.815.815 0 01-1.133-.066.774.774 0 01.068-1.108c1.17-1.015 3.933-2.446 6.026-.598.742.656 1.134 1.464 1.134 2.336-.001.77-.296 1.568-.876 2.37a6.226 6.226 0 01-.846.953.8.8 0 01-.437.195"/><path fill="#844793" d="M114.025 116.848a.577.577 0 01-.37-.132.498.498 0 01-.042-.735l1.593-1.662a.58.58 0 01.783-.04c.228.192.246.52.042.733l-1.593 1.664a.572.572 0 01-.413.172"/><path fill="#693875" d="M144.001 86.454c-.003-.05-.05-5.229-2.162-7.293l.125-.137c.959.937 1.683 2.47 2.154 4.558.348 1.537.42 2.788.422 2.84l-.539.032zm6.483 0c.003-.05.05-5.229 2.161-7.293l-.125-.137c-.958.937-1.683 2.47-2.154 4.558a18.703 18.703 0 00-.422 2.84l.54.032z"/><path fill="#215E60" d="M321.5 187.74l-3.136-5.62a.861.861 0 01-.061-.688v-.004c.327-1.018-.281-2.007-.352-2.116a.726.726 0 00-.982-.22.677.677 0 00-.228.95c.072.113.32.608.2.977-.024.074-.096.3-.554.492-1.024.433-1.502-.386-1.624-.65a.724.724 0 00-.936-.356.683.683 0 00-.373.907c.048.108.498 1.065 1.513 1.452l.005.002c.32.121.591.337.754.63l3.139 5.622 2.636-1.377z"/><path fill="#22A8B2" d="M327.415 189.794l3.27-5.823a.906.906 0 01.565-.431h.003c1.05-.274 1.596-1.348 1.655-1.47a.744.744 0 00-.31-.979.687.687 0 00-.939.323c-.06.125-.364.612-.744.71-.076.02-.308.08-.71-.214-.895-.658-.429-1.525-.264-1.775a.752.752 0 00-.167-1.014.683.683 0 00-.976.173c-.07.1-.668 1.018-.487 2.117v.006c.058.345.01.7-.16 1.004l-3.273 5.826 2.537 1.547z"/><path fill="#9C57AD" d="M322.852 199.925h17.561v-14.859h-17.561z"/><path fill="#693875" d="M314.071 199.925h17.561v-14.859h-17.561z"/><path fill="#844793" d="M331.632 185.066h-17.561v4.724l17.561 10.135z"/><path fill="#693875" d="M331.632 185.066l-3.497 4.052h-17.441l3.264-4.052z"/><path fill="#844793" d="M340.413 195.872h-2.702l.238-.788-.238-.562h2.702z"/><path fill="#9C57AD" d="M331.632 186.722l3.706 3.747h5.075v-5.403h-8.781z"/><path fill="#844793" d="M340.484 185.066l3.981 4.052h-8.858l-3.975-4.052z"/></g></svg>