<svg xmlns="http://www.w3.org/2000/svg" xmlns:xlink="http://www.w3.org/1999/xlink" width="120" height="22"><defs><path id="a" d="M0 .142h28.995V22H0z"/><path id="c" d="M.09.108h10.899v11.807H.09z"/></defs><g fill="none" fill-rule="evenodd"><g><mask id="b" fill="#793e87"><use xlink:href="#a"/></mask><path fill="#793e87" d="M18.2 22h-.268a1.023 1.023 0 01-.951-1.085c.03-.573.55-.994 1.07-.964h.164c1.68 0 3.049-1.417 3.049-3.135 0-1.461-.952-2.712-2.335-3.058a1.02 1.02 0 01-.714-1.311 1.01 1.01 0 011.234-.663c2.618.753 5.815-.076 7.11-3.617.55-1.537.564-2.908.029-3.963-.461-.904-1.324-1.567-2.424-1.868-1.562-.437-3.45.09-5.042 1.386-2.454 2.004-3.762 5.274-3.584 8.996.015.256.03.542.06.844.163 2.35.401 5.922-2.023 7.594a5.033 5.033 0 01-2.766.844c-2.796 0-5.057-2.32-5.057-5.184 0-1.04.298-2.004.818-2.817-2.691-.422-4.937-2.26-5.978-5.124C-.419 6.238.057 4.37.607 3.27 1.336 1.853 2.644.829 4.31.362c2.796-.769 6.068.512 8.343 3.27a1.03 1.03 0 01-.119 1.431.989.989 0 01-1.413-.136c-1.77-2.14-4.223-3.164-6.276-2.606-1.1.3-1.963.964-2.424 1.868-.535 1.055-.52 2.426.03 3.963 1.279 3.541 4.491 4.37 7.109 3.616.52-.15 1.07.151 1.234.679.09.27.045.572-.09.813a1.066 1.066 0 01-.639.498c-1.368.346-2.335 1.597-2.335 3.058 0 1.733 1.369 3.135 3.05 3.135.58 0 1.189-.181 1.635-.498 1.472-1.01 1.279-3.752 1.145-5.756-.03-.316-.044-.618-.06-.889-.208-4.37 1.369-8.272 4.343-10.683C19.94.422 22.498-.241 24.684.362c1.651.452 2.96 1.491 3.688 2.908.566 1.1 1.027 2.968.075 5.59-1.041 2.863-3.287 4.702-5.979 5.124a5.23 5.23 0 01.803 2.817C23.257 19.664 20.996 22 18.201 22" /></g><path fill="#793e87" d="M38.181 2c.719 0 1.214.486 1.214 1.19v14.617h7.503c.655 0 1.102.438 1.102 1.112 0 .642-.447 1.081-1.102 1.081h-8.764C37.479 20 37 19.53 37 18.888V3.19c0-.704.495-1.19 1.181-1.19m13.352 18c-.742 0-1.22-.432-1.22-1.05V9.583c0-.619.495-1.05 1.203-1.05.71 0 1.22.431 1.22 1.05v9.367c-.016.618-.527 1.05-1.203 1.05M53 5.31c0 .704-.676 1.309-1.5 1.309-.84 0-1.5-.59-1.5-1.31C50 4.604 50.66 4 51.5 4c.808.014 1.5.604 1.5 1.31m10-1.57c0 .467-.314.918-.926.918-.596 0-1.083-.513-2.04-.513-1.162 0-1.727.715-1.727 2.02v1.509h2.433c.596 0 1.004.404 1.004 1.025 0 .591-.408.995-1.004.995h-2.433v9.171c0 .669-.486 1.135-1.146 1.135-.706 0-1.161-.466-1.161-1.135V6.275C56 3.539 57.632 2 60.112 2 61.76 2 63 2.793 63 3.74m24 6.185c0 .478-.397.84-.937.84-.873 0-1.523-.796-3.54-.796-2.539 0-4.19 1.795-4.19 4.01 0 2.243 1.651 4.038 4.19 4.038 2.017 0 2.667-.782 3.54-.782.556 0 .937.362.937.854C87 19.146 84.968 20 82.65 20 78.62 20 76 17.308 76 13.993 76 10.678 78.65 8 82.698 8 84.984 7.986 87 8.854 87 9.925m7.015.058c-2.204 0-3.826 1.766-3.826 4.01 0 2.214 1.622 4.038 3.826 4.038 2.233 0 3.796-1.809 3.796-4.038 0-2.244-1.563-4.01-3.796-4.01M93.985 8C97.38 8 100 10.678 100 13.993 100 17.308 97.38 20 93.985 20 90.62 20 88 17.308 88 13.993 88 10.678 90.62 8 93.985 8m11.008-6c.585 0 1.007.473 1.007 1.15v15.7c0 .677-.422 1.15-.993 1.15-.599 0-1.007-.473-1.007-1.15V3.15c.014-.677.408-1.15.993-1.15M65.184 14.482l6.647-2.584c-.577-1.321-1.845-2.541-4.023-1.975-1.86.494-3.2 2.236-2.624 4.559m8.017-1.321l-7.483 2.918c.605 1.437 2.076 2.352 4.383 1.96 1.125-.189 1.557-.828 2.293-.915.98-.116 2.047 1.859-1.904 2.7-3.676.785-6.43-1.132-7.281-4.34-.85-3.209.966-6.65 4.196-7.332 3.561-.755 5.955 1.452 6.517 3.325.216.755-.015 1.452-.721 1.684"/><g transform="translate(109 8)"><mask id="d" fill="#793e87"><use xlink:href="#c"/></mask><path fill="#793e87" d="M2.254 6.486l6.6-2.543C8.283 2.643 7.026 1.443 4.87 2c-1.857.486-3.186 2.2-2.615 4.486m7.943-1.3l-7.4 2.871c.6 1.414 2.057 2.314 4.343 1.929 1.114-.186 1.543-.815 2.257-.9.972-.115 2.029 1.828-1.886 2.657-3.642.771-6.37-1.114-7.214-4.272C-.546 4.314 1.254.93 4.454.257c3.529-.743 5.9 1.429 6.458 3.272.214.742-.015 1.428-.715 1.657"/></g></g></svg>